 ISM-V2
         256         472         216           4
  -2.6873977405837541       -6.8533127622695584        0.0000000000000000     
  -2.0107216208337615       -6.8653592763871760        0.0000000000000000     
  -1.0410418717253931       -6.9216393501901949        0.0000000000000000     
   2.9912702576840707E-007  -6.9498898853362308        0.0000000000000000     
   1.0410424460724244       -6.9216392767031785        0.0000000000000000     
   2.0107220324553001       -6.8653591831123713        0.0000000000000000     
   2.6873981284579389       -6.8533125932786199        0.0000000000000000     
  -4.7376904454980995       -5.7175213451225044        0.0000000000000000     
  -4.1206720130528520       -5.8675490522077896        0.0000000000000000     
  -3.1043042956445648       -6.1731350923322887        0.0000000000000000     
  -2.0036785626447200       -5.9851228109660299        0.0000000000000000     
  -1.0098066418509064       -5.9615428122665204        0.0000000000000000     
   1.4706799468291222E-007  -5.9621383436589896        0.0000000000000000     
   1.0098069252998503       -5.9615427750810719        0.0000000000000000     
   2.0036788470530045       -5.9851227251882229        0.0000000000000000     
   3.1043047227986076       -6.1731348858195423        0.0000000000000000     
   4.1206723395676512       -5.8675488550488604        0.0000000000000000     
   4.7376907442183054       -5.7175210852012199        0.0000000000000000     
  -5.7175290854607779       -4.7380091301910010        0.0000000000000000     
  -5.0338745166877699       -5.0343954062500895        0.0000000000000000     
  -4.0192675410949015       -4.9833531598216387        0.0000000000000000     
  -3.0341474170277136       -5.0182548701078833        0.0000000000000000     
  -2.0156881211264164       -5.0103777714865521        0.0000000000000000     
  -1.0040300753799325       -4.9870767872107384        0.0000000000000000     
   6.0815912483782476E-008  -4.9814748373723354        0.0000000000000000     
   1.0040302008008126       -4.9870767661818354        0.0000000000000000     
   2.0156882686372239       -5.0103777190234284        0.0000000000000000     
   3.0341475955502211       -5.0182547800320005        0.0000000000000000     
   4.0192677419725520       -4.9833530285321146        0.0000000000000000     
   5.0338748213315210       -5.0343951447304720        0.0000000000000000     
   5.7175292975176388       -4.7380089561448235        0.0000000000000000     
  -5.8675188863064056       -4.1212636296863909        0.0000000000000000     
  -4.9817761240538099       -4.0207066396640707        0.0000000000000000     
  -4.0043466716132494       -4.0091310423573763        0.0000000000000000     
  -2.9990315694177996       -4.0029589564990600        0.0000000000000000     
  -1.9980410613753681       -4.0034989440708078        0.0000000000000000     
  -1.0025886914582574       -4.0005457543668728        0.0000000000000000     
   2.0716010322157786E-008  -3.9975159229364250        0.0000000000000000     
   1.0025887371619329       -4.0005457439384919        0.0000000000000000     
   1.9980411183580911       -4.0034989210294167        0.0000000000000000     
   2.9990316405720265       -4.0029589207724925        0.0000000000000000     
   4.0043467561697534       -4.0091310005645440        0.0000000000000000     
   4.9817761918620427       -4.0207066409172585        0.0000000000000000     
   5.8675188518455164       -4.1212637904706897        0.0000000000000000     
  -6.8541002111688183       -2.6879947245913107        0.0000000000000000     
  -6.1729085409881828       -3.1048888913844155        0.0000000000000000     
  -5.0136659075640297       -3.0350713738960646        0.0000000000000000     
  -3.9875424262402634       -3.0037083370185043        0.0000000000000000     
  -2.9583450770060664       -2.9862077152150777        0.0000000000000000     
  -1.9564448711240272       -3.0074316257274023        0.0000000000000000     
  -1.0288837123639378       -3.0335503938670736        0.0000000000000000     
   1.0288837261293409       -3.0335503875679914        0.0000000000000000     
   1.9564448907221292       -3.0074316143886093        0.0000000000000000     
   2.9583450995996925       -2.9862077071259527        0.0000000000000000     
   3.9875424417605054       -3.0037083567292124        0.0000000000000000     
   5.0136658835814423       -3.0350714872829925        0.0000000000000000     
   6.1729083819393678       -3.1048892701218342        0.0000000000000000     
   6.8541000555287406       -2.6879951006708396        0.0000000000000000     
  -6.8662753709801922       -2.0111701987867616        0.0000000000000000     
  -5.9840270273315026       -2.0036316982582778        0.0000000000000000     
  -4.9988021360598456       -2.0128444316642962        0.0000000000000000     
  -3.9673460790320734       -1.9910456416213265        0.0000000000000000     
  -2.9250676751279636       -1.9602609213766236        0.0000000000000000     
  -1.7488220331260820       -1.8941799125227698        0.0000000000000000     
  -1.0549997787868850       -2.3236466700725056        0.0000000000000000     
   1.0549997837346989       -2.3236466644045155        0.0000000000000000     
   1.7488220456724668       -1.8941798935970877        0.0000000000000000     
   2.9250676820651060       -1.9602609194579510        0.0000000000000000     
   3.9673460732862944       -1.9910456785028996        0.0000000000000000     
   4.9988021003931316       -2.0128445626745215        0.0000000000000000     
   5.9840269527385770       -2.0036319863591987        0.0000000000000000     
   6.8662752831181848       -2.0111706214718250        0.0000000000000000     
  -6.9224179711968894       -1.0409114847469898        0.0000000000000000     
  -5.9580972668346384       -1.0079369394830269        0.0000000000000000     
  -4.9644031999205085      -0.99567599301028353        0.0000000000000000     
  -3.9291101003161621      -0.97695020835669544        0.0000000000000000     
  -2.9054997225222792      -0.96230280748999231        0.0000000000000000     
  -1.9926400784257630      -0.87289673502189002        0.0000000000000000     
   1.9926400966711493      -0.87289669885085341        0.0000000000000000     
   2.9054997267781739      -0.96230280151691017        0.0000000000000000     
   3.9291100927795046      -0.97695023859068741        0.0000000000000000     
   4.9644031747190178      -0.99567610299695042        0.0000000000000000     
   5.9580972159582188       -1.0079372294112183        0.0000000000000000     
   6.9224178848348696       -1.0409122106557087        0.0000000000000000     
  -6.9501005397333646        9.2742624259376633E-004   0.0000000000000000     
  -5.9557814357875589        3.5672791828285848E-003   0.0000000000000000     
  -4.9483036165862142        1.0995072712916637E-002   0.0000000000000000     
  -3.8953761385874000        2.9859225313277699E-002   0.0000000000000000     
  -2.7044268180022062        9.0239571225917664E-002   0.0000000000000000     
  -2.0577134077941768      -0.24596023237843018        0.0000000000000000     
   2.0577134210781893      -0.24596020432330881        0.0000000000000000     
   2.7044268189529750        9.0239580439220993E-002   0.0000000000000000     
   3.8953761307951136        2.9859213141896310E-002   0.0000000000000000     
   4.9483035951629128        1.0995006083563994E-002   0.0000000000000000     
   5.9557813901342689        3.5670820551844027E-003   0.0000000000000000     
   6.9501004563400075        9.2689433946285945E-004   0.0000000000000000     
  -6.9211366160086696        1.0424222176432969        0.0000000000000000     
  -5.9532838484776942        1.0137526163989738        0.0000000000000000     
  -4.9500311685113738        1.0133010960715971        0.0000000000000000     
  -3.8931011037157370        1.0206864672017701        0.0000000000000000     
  -2.8597405927114097        1.0355541279811451        0.0000000000000000     
   2.8597405855121849        1.0355541561971500        0.0000000000000000     
   3.8931010938629025        1.0206864792386088        0.0000000000000000     
   4.9500311437661138        1.0133010952219772        0.0000000000000000     
   5.9532837990717420        1.0137526003884889        0.0000000000000000     
   6.9211365315572104        1.0424222862574206        0.0000000000000000     
  -6.8644255432723220        2.0119396442671040        0.0000000000000000     
  -5.9770878564770857        2.0066264662415398        0.0000000000000000     
  -4.9783437062948490        2.0217143918982812        0.0000000000000000     
  -3.9140404518912146        2.0099176101976779        0.0000000000000000     
  -2.7410761635755314        1.9789206013273941        0.0000000000000000     
  -2.1286743374522938        2.2972195370402191        0.0000000000000000     
   2.1286743610257428        2.2972195426678863        0.0000000000000000     
   2.7410761638388315        1.9789206359776161        0.0000000000000000     
   3.9140404460755791        2.0099176374807124        0.0000000000000000     
   4.9783436737400066        2.0217144567818068        0.0000000000000000     
   5.9770877867144092        2.0066266051878681        0.0000000000000000     
   6.8644254594391168        2.0119399050256175        0.0000000000000000     
  -6.8525413060636966        2.6881963732921865        0.0000000000000000     
  -6.1678363756747823        3.1055140586749621        0.0000000000000000     
  -4.9973810792864457        3.0371864629703023        0.0000000000000000     
  -3.9532479064607431        3.0086876509391756        0.0000000000000000     
  -2.9421500723748752        3.0044506681060703        0.0000000000000000     
  -1.9325861810773708        2.9330503835958242        0.0000000000000000     
  -1.2961124323034472        3.1292858466381226        0.0000000000000000     
   1.2961125095535806        3.1292858073071472        0.0000000000000000     
   1.9325862367186470        2.9330503517007265        0.0000000000000000     
   2.9421501048823253        3.0044506615488382        0.0000000000000000     
   3.9532479276365025        3.0086876615716163        0.0000000000000000     
   4.9973810641359471        3.0371865415826074        0.0000000000000000     
   6.1678362306961185        3.1055143771001839        0.0000000000000000     
   6.8525411601091664        2.6881966863964721        0.0000000000000000     
  -5.8641463558607985        4.1208556574546105        0.0000000000000000     
  -4.9733093718925314        4.0196757173264421        0.0000000000000000     
  -3.9922265881412802        4.0059453056237606        0.0000000000000000     
  -2.9890091422252363        3.9843170145084694        0.0000000000000000     
  -2.0054941764375291        3.9431793687522627        0.0000000000000000     
 -0.97208389168591847        3.7420513075922179        0.0000000000000000     
   4.9676272106708220E-008   3.8718978722738666        0.0000000000000000     
  0.97208398546357100        3.7420512824509329        0.0000000000000000     
   2.0054942543469472        3.9431793364082628        0.0000000000000000     
   2.9890092219353601        3.9843169730044226        0.0000000000000000     
   3.9922266832879605        4.0059452501162065        0.0000000000000000     
   4.9733094595143239        4.0196756893634520        0.0000000000000000     
   5.8641463429630729        4.1208557832656991        0.0000000000000000     
  -5.7158908831846356        4.7374654742093689        0.0000000000000000     
  -5.0310753814344409        5.0329859200420142        0.0000000000000000     
  -4.0146693983288904        4.9778067867170375        0.0000000000000000     
  -3.0301613062086163        5.0005146435834220        0.0000000000000000     
  -2.0111150485345335        4.9601592448796588        0.0000000000000000     
 -0.99816482806907292        4.9040223934159526        0.0000000000000000     
   6.5559167275215029E-008   4.8889229740908711        0.0000000000000000     
  0.99816495902914193        4.9040223703928012        0.0000000000000000     
   2.0111151922869741        4.9601591923650652        0.0000000000000000     
   3.0301614770132304        5.0005145532717288        0.0000000000000000     
   4.0146696060123634        4.9778066411423163        0.0000000000000000     
   5.0310757370402959        5.0329856029402960        0.0000000000000000     
   5.7158911418430645        4.7374652500277525        0.0000000000000000     
  -4.7366408724331448        5.7163969255377962        0.0000000000000000     
  -4.1192062592906806        5.8644052326761127        0.0000000000000000     
  -3.1027380900121511        6.1648179887777212        0.0000000000000000     
  -2.0015559213129070        5.9647195940348077        0.0000000000000000     
  -1.0080842121091849        5.9307120578964962        0.0000000000000000     
   1.2809144579091231E-007   5.9271981412979953        0.0000000000000000     
   1.0080844592290032        5.9307120244791536        0.0000000000000000     
   2.0015561708518548        5.9647195166171958        0.0000000000000000     
   3.1027384683617534        6.1648178022211253        0.0000000000000000     
   4.1192065691366757        5.8644050357600435        0.0000000000000000     
   4.7366412086031051        5.7163966234799082        0.0000000000000000     
  -2.6868851371343672        6.8498717712581927        0.0000000000000000     
  -2.0100960238839289        6.8591082624958490        0.0000000000000000     
  -1.0405857107919183        6.9126053965829257        0.0000000000000000     
   2.5020681072890381E-007   6.9397443383701223        0.0000000000000000     
   1.0405861922485977        6.9126053343110048        0.0000000000000000     
   2.0100963728176224        6.8591081816647161        0.0000000000000000     
   2.6868854733549496        6.8498716232438612        0.0000000000000000     
  -3.6705104009983383       -7.1082595194719094        0.0000000000000000     
  -3.0442865551243687       -7.3981294507658495        0.0000000000000000     
  -2.1863978152204240       -7.6954314104928097        0.0000000000000000     
  -1.1313695802431920       -7.9195961306685545        0.0000000000000000     
   3.6410209097182056E-009  -8.0000000000000000        0.0000000000000000     
   1.1313715929171260       -7.9195958431437754        0.0000000000000000     
   2.1863978152204160       -7.6954314104928123        0.0000000000000000     
   3.0442865551243607       -7.3981294507658522        0.0000000000000000     
   3.6705121720218252       -7.1082586049636394        0.0000000000000000     
   4.4376011313588206       -6.6564026469980702        0.0000000000000000     
   5.1002019105058052       -6.1634357684714240        0.0000000000000000     
   5.6568541807137214       -5.6568543182710380        0.0000000000000000     
   6.1634357684714249       -5.1002019105058043        0.0000000000000000     
   6.6564026469980728       -4.4376011313588162        0.0000000000000000     
   7.1082586387364719       -3.6705121066178656        0.0000000000000000     
   7.3981294507658539       -3.0442865551243559        0.0000000000000000     
   7.6954314104928132       -2.1863978152204129        0.0000000000000000     
   7.9195958648410292       -1.1313714410364422        0.0000000000000000     
   7.9999999999999973       -1.9089446951922548E-007   0.0000000000000000     
   7.9195958696254367        1.1313714075456063        0.0000000000000000     
   7.6954314104928123        2.1863978152204151        0.0000000000000000     
   7.3981294507658530        3.0442865551243603        0.0000000000000000     
   7.1082586908781771        3.6705120056410205        0.0000000000000000     
   6.6564026469980719        4.4376011313588171        0.0000000000000000     
   6.1634357684714232        5.1002019105058070        0.0000000000000000     
   5.6568544506792646        5.6568540483054894        0.0000000000000000     
   5.1002019105058061        6.1634357684714240        0.0000000000000000     
   4.4376011313588162        6.6564026469980728        0.0000000000000000     
   3.6705119402370614        7.1082587246510069        0.0000000000000000     
   3.0442865551243585        7.3981294507658530        0.0000000000000000     
   2.1863978152204191        7.6954314104928114        0.0000000000000000     
   1.1313712556649234        7.9195958913226860        0.0000000000000000     
   0.0000000000000000        8.0000000000000000        0.0000000000000000     
  -1.1313695802431916        7.9195961306685545        0.0000000000000000     
  -2.1863978152204133        7.6954314104928132        0.0000000000000000     
  -3.0442865551243616        7.3981294507658522        0.0000000000000000     
  -3.6705104009983285        7.1082595194719147        0.0000000000000000     
  -4.4376011313588100        6.6564026469980773        0.0000000000000000     
  -5.1002019105058114        6.1634357684714187        0.0000000000000000     
  -5.6568527973323857        5.6568557016520025        0.0000000000000000     
  -6.1634357684714214        5.1002019105058087        0.0000000000000000     
  -6.6564026469980755        4.4376011313588126        0.0000000000000000     
  -7.1082595194719094        3.6705104009983378        0.0000000000000000     
  -7.3981294507658477        3.0442865551243714        0.0000000000000000     
  -7.6954314104928097        2.1863978152204235        0.0000000000000000     
  -7.9195961306685545        1.1313695802431951        0.0000000000000000     
  -7.9999999999997362        2.0536640888705361E-006   0.0000000000000000     
  -7.9195961306685545       -1.1313695802431909        0.0000000000000000     
  -7.6954314104928114       -2.1863978152204195        0.0000000000000000     
  -7.3981294507658522       -3.0442865551243612        0.0000000000000000     
  -7.1082595194719147       -3.6705104009983280        0.0000000000000000     
  -6.6564026469980782       -4.4376011313588091        0.0000000000000000     
  -6.1634357684714196       -5.1002019105058105        0.0000000000000000     
  -5.6568527973323830       -5.6568557016520042        0.0000000000000000     
  -5.1002019105058114       -6.1634357684714187        0.0000000000000000     
  -4.4376011313588135       -6.6564026469980755        0.0000000000000000     
   0.0000000000000000       -3.0000000000000000        0.0000000000000000     
  0.55937500602804713       -1.8812499879439057        0.0000000000000000     
  0.84062499397195267       -1.3187500120560947        0.0000000000000000     
   1.2000000817126981      -0.59999983657460376        0.0000000000000000     
   1.5593750060280469       0.11875001205609381        0.0000000000000000     
   1.8406249939719526       0.68124998794390512        0.0000000000000000     
   2.0000000000000000        1.0000000000000000        0.0000000000000000     
   1.9234528539428934        1.5480229180052039        0.0000000000000000     
   1.7577069153495042        1.9541836299856183        0.0000000000000000     
   1.4142135455002482        2.4142135792459416        0.0000000000000000     
  0.95418362998561834        2.7577069153495040        0.0000000000000000     
  0.54802294711610822        2.9234528456487245        0.0000000000000000     
  -4.5511671064437944E-010   3.0000000000000000        0.0000000000000000     
 -0.54802270862631064        2.9234529135983243        0.0000000000000000     
 -0.95418362998561812        2.7577069153495044        0.0000000000000000     
  -1.4142133808531077        2.4142137438930593        0.0000000000000000     
  -1.7577069153495022        1.9541836299856215        0.0000000000000000     
  -1.9234529135983240        1.5480227086263110        0.0000000000000000     
  -2.0000000000000000        1.0000000000000000        0.0000000000000000     
  -1.8406249939719528       0.68124998794390557        0.0000000000000000     
  -1.5593750060280471       0.11875001205609437        0.0000000000000000     
  -1.2000000031251037      -0.59999999374979263        0.0000000000000000     
 -0.84062499397195278       -1.3187500120560944        0.0000000000000000     
 -0.55937500602804713       -1.8812499879439057        0.0000000000000000     
     1       2       1     136       1       4
     2      11       1       2       2       4
    10      11       1       9       3       1
     1      10       1     135       4      -4
     2       3       2     137       1       4
     3      12       2       3       2       4
    11      12       2      10       3       1
     3       4       3     138       1       4
     4      13       3       4       2       4
    12      13       3      11       3       1
     4       5       4     139       1       4
     5      14       4       5       2       4
    13      14       4      12       3       1
     5       6       5     140       1       4
     6      15       5       6       2       4
    14      15       5      13       3       1
     6       7       6     141       1       4
     7      16       6     142       2       4
    15      16       6      14       3       1
     8       9       7     189       1       4
     9      21       7       8       2       4
    20      21       7      18       3       1
     8      20       7     188       4      -4
     9      10       8     190       1       4
    10      22       8       9       2       4
    21      22       8      19       3       1
    11      23       9      10       2       4
    22      23       9      20       3       1
    12      24      10      11       2       4
    23      24      10      21       3       1
    13      25      11      12       2       4
    24      25      11      22       3       1
    14      26      12      13       2       4
    25      26      12      23       3       1
    15      27      13      14       2       4
    26      27      13      24       3       1
    16      28      14      15       2       4
    27      28      14      25       3       1
    16      17      15     143       1       4
    17      29      15      16       2       4
    28      29      15      26       3       1
    17      18      16     144       1       4
    18      30      16     145       2       4
    29      30      16      27       3       1
    19      20      17     187       1       4
    20      33      17      18       2       4
    32      33      17      29       3       1
    19      32      17     186       4      -4
    21      34      18      19       2       4
    33      34      18      30       3       1
    22      35      19      20       2       4
    34      35      19      31       3       1
    23      36      20      21       2       4
    35      36      20      32       3       1
    24      37      21      22       2       4
    36      37      21      33       3       1
    25      38      22      23       2       4
    37      38      22     191       3       2
    26      39      23      24       2       4
    38      39      23     192       3       2
    27      40      24      25       2       4
    39      40      24      34       3       1
    28      41      25      26       2       4
    40      41      25      35       3       1
    29      42      26      27       2       4
    41      42      26      36       3       1
    30      43      27      28       2       4
    42      43      27      37       3       1
    30      31      28     146       1       4
    31      44      28     147       2       4
    43      44      28      38       3       1
    33      47      29      30       2       4
    46      47      29      40       3       1
    32      46      29     185       4      -4
    34      48      30      31       2       4
    47      48      30      41       3       1
    35      49      31      32       2       4
    48      49      31      42       3       1
    36      50      32      33       2       4
    49      50      32      43       3       1
    37      51      33     191       2      -1
    50      51      33      44       3       1
    40      53      34      35       2       4
    52      53      34      45       3       1
    39      52      34     192       4      -3
    41      54      35      36       2       4
    53      54      35      46       3       1
    42      55      36      37       2       4
    54      55      36      47       3       1
    43      56      37      38       2       4
    55      56      37      48       3       1
    44      57      38     148       2       4
    56      57      38      49       3       1
    45      46      39     184       1       4
    46      60      39      40       2       4
    59      60      39      51       3       1
    45      59      39     183       4      -4
    47      61      40      41       2       4
    60      61      40      52       3       1
    48      62      41      42       2       4
    61      62      41      53       3       1
    49      63      42      43       2       4
    62      63      42      54       3       1
    50      64      43      44       2       4
    63      64      43      55       3       1
    51      65      44     216       2      -1
    64      65      44     215       3       1
    53      67      45      46       2       4
    66      67      45     194       3       1
    52      66      45     193       4       1
    54      68      46      47       2       4
    67      68      46      56       3       1
    55      69      47      48       2       4
    68      69      47      57       3       1
    56      70      48      49       2       4
    69      70      48      58       3       1
    57      71      49      50       2       4
    70      71      49      59       3       1
    57      58      50     149       1       4
    58      72      50     150       2       4
    71      72      50      60       3       1
    60      74      51      52       2       4
    73      74      51      61       3       1
    59      73      51     182       4      -4
    61      75      52      53       2       4
    74      75      52      62       3       1
    62      76      53      54       2       4
    75      76      53      63       3       1
    63      77      54      55       2       4
    76      77      54      64       3       1
    64      78      55     214       2      -1
    77      78      55      65       3       1
    68      80      56      57       2       4
    79      80      56      66       3       1
    67      79      56     195       4       1
    69      81      57      58       2       4
    80      81      57      67       3       1
    70      82      58      59       2       4
    81      82      58      68       3       1
    71      83      59      60       2       4
    82      83      59      69       3       1
    72      84      60     151       2       4
    83      84      60      70       3       1
    74      86      61      62       2       4
    85      86      61      71       3       1
    73      85      61     181       4      -4
    75      87      62      63       2       4
    86      87      62      72       3       1
    76      88      63      64       2       4
    87      88      63      73       3       1
    77      89      64      65       2       4
    88      89      64      74       3       1
    78      90      65     213       2      -1
    89      90      65     212       3       1
    80      92      66      67       2       4
    91      92      66     197       3       1
    79      91      66     196       4       1
    81      93      67      68       2       4
    92      93      67      75       3       1
    82      94      68      69       2       4
    93      94      68      76       3       1
    83      95      69      70       2       4
    94      95      69      77       3       1
    84      96      70     152       2       4
    95      96      70      78       3       1
    86      98      71      72       2       4
    97      98      71      79       3       1
    85      97      71     180       4      -4
    87      99      72      73       2       4
    98      99      72      80       3       1
    88     100      73      74       2       4
    99     100      73      81       3       1
    89     101      74     211       2      -1
   100     101      74      82       3       1
    93     103      75      76       2       4
   102     103      75      83       3       1
    92     102      75     198       4       1
    94     104      76      77       2       4
   103     104      76      84       3       1
    95     105      77      78       2       4
   104     105      77      85       3       1
    96     106      78     153       2       4
   105     106      78      86       3       1
    98     108      79      80       2       4
   107     108      79      87       3       1
    97     107      79     179       4      -4
    99     109      80      81       2       4
   108     109      80      88       3       1
   100     110      81      82       2       4
   109     110      81      89       3       1
   101     111      82     210       2      -1
   110     111      82      90       3       1
   103     115      83      84       2       4
   114     115      83      93       3       1
   102     114      83     199       4       1
   104     116      84      85       2       4
   115     116      84      94       3       1
   105     117      85      86       2       4
   116     117      85      95       3       1
   106     118      86     154       2       4
   117     118      86      96       3       1
   108     120      87      88       2       4
   119     120      87     177       3      -4
   107     119      87     178       4      -4
   109     121      88      89       2       4
   120     121      88      97       3       1
   110     122      89      90       2       4
   121     122      89      98       3       1
   111     123      90      91       2       4
   122     123      90      99       3       1
   111     112      91     209       1      -1
   112     124      91     208       2      -1
   123     124      91     100       3       1
   113     114      92     200       1      -1
   114     128      92      93       2       4
   127     128      92     103       3       1
   113     127      92     201       4       1
   115     129      93      94       2       4
   128     129      93     104       3       1
   116     130      94      95       2       4
   129     130      94     105       3       1
   117     131      95      96       2       4
   130     131      95     106       3       1
   118     132      96     155       2       4
   131     132      96     156       3      -4
   121     134      97      98       2       4
   133     134      97     107       3       1
   120     133      97     176       4      -4
   122     135      98      99       2       4
   134     135      98     108       3       1
   123     136      99     100       2       4
   135     136      99     109       3       1
   124     137     100     101       2       4
   136     137     100     110       3       1
   124     125     101     207       1      -1
   125     138     101     206       2      -1
   137     138     101     111       3       1
   126     127     102     202       1      -1
   127     141     102     103       2       4
   140     141     102     114       3       1
   126     140     102     203       4       1
   128     142     103     104       2       4
   141     142     103     115       3       1
   129     143     104     105       2       4
   142     143     104     116       3       1
   130     144     105     106       2       4
   143     144     105     117       3       1
   131     145     106     157       2       4
   144     145     106     118       3       1
   134     147     107     108       2       4
   146     147     107     174       3      -4
   133     146     107     175       4      -4
   135     148     108     109       2       4
   147     148     108     119       3       1
   136     149     109     110       2       4
   148     149     109     120       3       1
   137     150     110     111       2       4
   149     150     110     121       3       1
   138     151     111     112       2       4
   150     151     111     122       3       1
   138     139     112     205       1      -1
   139     152     112     113       2       4
   151     152     112     123       3       1
   139     140     113     204       1      -1
   140     153     113     114       2       4
   152     153     113     124       3       1
   141     154     114     115       2       4
   153     154     114     125       3       1
   142     155     115     116       2       4
   154     155     115     126       3       1
   143     156     116     117       2       4
   155     156     116     127       3       1
   144     157     117     118       2       4
   156     157     117     128       3       1
   145     158     118     158       2       4
   157     158     118     159       3      -4
   148     160     119     120       2       4
   159     160     119     172       3      -4
   147     159     119     173       4      -4
   149     161     120     121       2       4
   160     161     120     171       3      -4
   150     162     121     122       2       4
   161     162     121     129       3       1
   151     163     122     123       2       4
   162     163     122     130       3       1
   152     164     123     124       2       4
   163     164     123     131       3       1
   153     165     124     125       2       4
   164     165     124     132       3       1
   154     166     125     126       2       4
   165     166     125     133       3       1
   155     167     126     127       2       4
   166     167     126     134       3       1
   156     168     127     128       2       4
   167     168     127     162       3      -4
   157     169     128     160       2       4
   168     169     128     161       3      -4
   162     171     129     130       2       4
   170     171     129     169       3      -4
   161     170     129     170       4      -4
   163     172     130     131       2       4
   171     172     130     168       3      -4
   164     173     131     132       2       4
   172     173     131     167       3      -4
   165     174     132     133       2       4
   173     174     132     166       3      -4
   166     175     133     134       2       4
   174     175     133     165       3      -4
   167     176     134     163       2       4
   175     176     134     164       3      -4
    10     177     135     190       1       3
   177     178     135       0       2       0
     1     178     135     136       3       1
   178     179     136       0       2       0
     2     179     136     137       3       1
   179     180     137       0       2       0
     3     180     137     138       3       1
   180     181     138       0       2       0
     4     181     138     139       3       1
   181     182     139       0       2       0
     5     182     139     140       3       1
   182     183     140       0       2       0
     6     183     140     141       3       1
   183     184     141       0       2       0
     7     184     141     142       3       1
   184     185     142       0       2       0
    16     185     142     143       3       1
   185     186     143       0       2       0
    17     186     143     144       3       1
   186     187     144       0       2       0
    18     187     144     145       3       1
   187     188     145       0       2       0
    30     188     145     146       3       1
   188     189     146       0       2       0
    31     189     146     147       3       1
   189     190     147       0       2       0
    44     190     147     148       3       1
   190     191     148       0       2       0
    57     191     148     149       3       1
   191     192     149       0       2       0
    58     192     149     150       3       1
   192     193     150       0       2       0
    72     193     150     151       3       1
   193     194     151       0       2       0
    84     194     151     152       3       1
   194     195     152       0       2       0
    96     195     152     153       3       1
   195     196     153       0       2       0
   106     196     153     154       3       1
   196     197     154       0       2       0
   118     197     154     155       3       1
   197     198     155       0       2       0
   132     198     155     156       3       1
   198     199     156       0       2       0
   131     199     156     157       3       1
   199     200     157       0       2       0
   145     200     157     158       3       1
   200     201     158       0       2       0
   158     201     158     159       3       1
   201     202     159       0       2       0
   157     202     159     160       3       1
   202     203     160       0       2       0
   169     203     160     161       3       1
   203     204     161       0       2       0
   168     204     161     162       3       1
   204     205     162       0       2       0
   167     205     162     163       3       1
   205     206     163       0       2       0
   176     206     163     164       3       1
   206     207     164       0       2       0
   175     207     164     165       3       1
   207     208     165       0       2       0
   174     208     165     166       3       1
   208     209     166       0       2       0
   173     209     166     167       3       1
   209     210     167       0       2       0
   172     210     167     168       3       1
   210     211     168       0       2       0
   171     211     168     169       3       1
   211     212     169       0       2       0
   170     212     169     170       3       1
   212     213     170       0       2       0
   161     213     170     171       3       1
   213     214     171       0       2       0
   160     214     171     172       3       1
   214     215     172       0       2       0
   159     215     172     173       3       1
   215     216     173       0       2       0
   147     216     173     174       3       1
   216     217     174       0       2       0
   146     217     174     175       3       1
   217     218     175       0       2       0
   133     218     175     176       3       1
   218     219     176       0       2       0
   120     219     176     177       3       1
   219     220     177       0       2       0
   119     220     177     178       3       1
   220     221     178       0       2       0
   107     221     178     179       3       1
   221     222     179       0       2       0
    97     222     179     180       3       1
   222     223     180       0       2       0
    85     223     180     181       3       1
   223     224     181       0       2       0
    73     224     181     182       3       1
   224     225     182       0       2       0
    59     225     182     183       3       1
   225     226     183       0       2       0
    45     226     183     184       3       1
   226     227     184       0       2       0
    46     227     184     185       3       1
   227     228     185       0       2       0
    32     228     185     186       3       1
   228     229     186       0       2       0
    19     229     186     187       3       1
   229     230     187       0       2       0
    20     230     187     188       3       1
   230     231     188       0       2       0
     8     231     188     189       3       1
   231     232     189       0       2       0
     9     232     189     190       3       1
   232     177     190       0       2       0
   233      38     191     192       3       1
    51     233     191     216       4       2
   233      52     192     193       4      -4
    66     234     193     194       2       4
   233     234     193       0       3       0
    67     235     194     195       2       4
   234     235     194       0       3       0
    79     236     195     196       2       4
   235     236     195       0       3       0
    91     237     196     197       2       4
   236     237     196       0       3       0
    92     238     197     198       2       4
   237     238     197       0       3       0
   102     239     198     199       2       4
   238     239     198       0       3       0
   114     240     199     200       2       4
   239     240     199       0       3       0
   113     241     200     201       2       4
   240     241     200       0       3       0
   127     242     201     202       2       4
   241     242     201       0       3       0
   126     243     202     203       2       4
   242     243     202       0       3       0
   140     244     203     204       2       4
   243     244     203       0       3       0
   139     245     204     205       2       4
   244     245     204       0       3       0
   138     246     205     206       2       4
   245     246     205       0       3       0
   125     247     206     207       2       4
   246     247     206       0       3       0
   124     248     207     208       2       4
   247     248     207       0       3       0
   112     249     208     209       2       4
   248     249     208       0       3       0
   111     250     209     210       2       4
   249     250     209       0       3       0
   101     251     210     211       2       4
   250     251     210       0       3       0
    89     252     211     212       2       4
   251     252     211       0       3       0
    90     253     212     213       2       4
   252     253     212       0       3       0
    78     254     213     214       2       4
   253     254     213       0       3       0
    64     255     214     215       2       4
   254     255     214       0       3       0
    65     256     215     216       2       4
   255     256     215       0       3       0
   256     233     216       0       3       0
           1           2          11          10
           0           0           0           0
 --- --- --- --- 
           2           3          12          11
           0           0           0           0
 --- --- --- --- 
           3           4          13          12
           0           0           0           0
 --- --- --- --- 
           4           5          14          13
           0           0           0           0
 --- --- --- --- 
           5           6          15          14
           0           0           0           0
 --- --- --- --- 
           6           7          16          15
           0           0           0           0
 --- --- --- --- 
           8           9          21          20
           0           0           0           0
 --- --- --- --- 
           9          10          22          21
           0           0           0           0
 --- --- --- --- 
          10          11          23          22
           0           0           0           0
 --- --- --- --- 
          11          12          24          23
           0           0           0           0
 --- --- --- --- 
          12          13          25          24
           0           0           0           0
 --- --- --- --- 
          13          14          26          25
           0           0           0           0
 --- --- --- --- 
          14          15          27          26
           0           0           0           0
 --- --- --- --- 
          15          16          28          27
           0           0           0           0
 --- --- --- --- 
          16          17          29          28
           0           0           0           0
 --- --- --- --- 
          17          18          30          29
           0           0           0           0
 --- --- --- --- 
          19          20          33          32
           0           0           0           0
 --- --- --- --- 
          20          21          34          33
           0           0           0           0
 --- --- --- --- 
          21          22          35          34
           0           0           0           0
 --- --- --- --- 
          22          23          36          35
           0           0           0           0
 --- --- --- --- 
          23          24          37          36
           0           0           0           0
 --- --- --- --- 
          24          25          38          37
           0           0           0           0
 --- --- --- --- 
          25          26          39          38
           0           0           0           0
 --- --- --- --- 
          26          27          40          39
           0           0           0           0
 --- --- --- --- 
          27          28          41          40
           0           0           0           0
 --- --- --- --- 
          28          29          42          41
           0           0           0           0
 --- --- --- --- 
          29          30          43          42
           0           0           0           0
 --- --- --- --- 
          30          31          44          43
           0           0           0           0
 --- --- --- --- 
          32          33          47          46
           0           0           0           0
 --- --- --- --- 
          33          34          48          47
           0           0           0           0
 --- --- --- --- 
          34          35          49          48
           0           0           0           0
 --- --- --- --- 
          35          36          50          49
           0           0           0           0
 --- --- --- --- 
          36          37          51          50
           0           0           0           0
 --- --- --- --- 
          39          40          53          52
           0           0           0           0
 --- --- --- --- 
          40          41          54          53
           0           0           0           0
 --- --- --- --- 
          41          42          55          54
           0           0           0           0
 --- --- --- --- 
          42          43          56          55
           0           0           0           0
 --- --- --- --- 
          43          44          57          56
           0           0           0           0
 --- --- --- --- 
          45          46          60          59
           0           0           0           0
 --- --- --- --- 
          46          47          61          60
           0           0           0           0
 --- --- --- --- 
          47          48          62          61
           0           0           0           0
 --- --- --- --- 
          48          49          63          62
           0           0           0           0
 --- --- --- --- 
          49          50          64          63
           0           0           0           0
 --- --- --- --- 
          50          51          65          64
           0           0           0           0
 --- --- --- --- 
          52          53          67          66
           0           0           0           0
 --- --- --- --- 
          53          54          68          67
           0           0           0           0
 --- --- --- --- 
          54          55          69          68
           0           0           0           0
 --- --- --- --- 
          55          56          70          69
           0           0           0           0
 --- --- --- --- 
          56          57          71          70
           0           0           0           0
 --- --- --- --- 
          57          58          72          71
           0           0           0           0
 --- --- --- --- 
          59          60          74          73
           0           0           0           0
 --- --- --- --- 
          60          61          75          74
           0           0           0           0
 --- --- --- --- 
          61          62          76          75
           0           0           0           0
 --- --- --- --- 
          62          63          77          76
           0           0           0           0
 --- --- --- --- 
          63          64          78          77
           0           0           0           0
 --- --- --- --- 
          67          68          80          79
           0           0           0           0
 --- --- --- --- 
          68          69          81          80
           0           0           0           0
 --- --- --- --- 
          69          70          82          81
           0           0           0           0
 --- --- --- --- 
          70          71          83          82
           0           0           0           0
 --- --- --- --- 
          71          72          84          83
           0           0           0           0
 --- --- --- --- 
          73          74          86          85
           0           0           0           0
 --- --- --- --- 
          74          75          87          86
           0           0           0           0
 --- --- --- --- 
          75          76          88          87
           0           0           0           0
 --- --- --- --- 
          76          77          89          88
           0           0           0           0
 --- --- --- --- 
          77          78          90          89
           0           0           0           0
 --- --- --- --- 
          79          80          92          91
           0           0           0           0
 --- --- --- --- 
          80          81          93          92
           0           0           0           0
 --- --- --- --- 
          81          82          94          93
           0           0           0           0
 --- --- --- --- 
          82          83          95          94
           0           0           0           0
 --- --- --- --- 
          83          84          96          95
           0           0           0           0
 --- --- --- --- 
          85          86          98          97
           0           0           0           0
 --- --- --- --- 
          86          87          99          98
           0           0           0           0
 --- --- --- --- 
          87          88         100          99
           0           0           0           0
 --- --- --- --- 
          88          89         101         100
           0           0           0           0
 --- --- --- --- 
          92          93         103         102
           0           0           0           0
 --- --- --- --- 
          93          94         104         103
           0           0           0           0
 --- --- --- --- 
          94          95         105         104
           0           0           0           0
 --- --- --- --- 
          95          96         106         105
           0           0           0           0
 --- --- --- --- 
          97          98         108         107
           0           0           0           0
 --- --- --- --- 
          98          99         109         108
           0           0           0           0
 --- --- --- --- 
          99         100         110         109
           0           0           0           0
 --- --- --- --- 
         100         101         111         110
           0           0           0           0
 --- --- --- --- 
         102         103         115         114
           0           0           0           0
 --- --- --- --- 
         103         104         116         115
           0           0           0           0
 --- --- --- --- 
         104         105         117         116
           0           0           0           0
 --- --- --- --- 
         105         106         118         117
           0           0           0           0
 --- --- --- --- 
         107         108         120         119
           0           0           0           0
 --- --- --- --- 
         108         109         121         120
           0           0           0           0
 --- --- --- --- 
         109         110         122         121
           0           0           0           0
 --- --- --- --- 
         110         111         123         122
           0           0           0           0
 --- --- --- --- 
         111         112         124         123
           0           0           0           0
 --- --- --- --- 
         113         114         128         127
           0           0           0           0
 --- --- --- --- 
         114         115         129         128
           0           0           0           0
 --- --- --- --- 
         115         116         130         129
           0           0           0           0
 --- --- --- --- 
         116         117         131         130
           0           0           0           0
 --- --- --- --- 
         117         118         132         131
           0           0           0           0
 --- --- --- --- 
         120         121         134         133
           0           0           0           0
 --- --- --- --- 
         121         122         135         134
           0           0           0           0
 --- --- --- --- 
         122         123         136         135
           0           0           0           0
 --- --- --- --- 
         123         124         137         136
           0           0           0           0
 --- --- --- --- 
         124         125         138         137
           0           0           0           0
 --- --- --- --- 
         126         127         141         140
           0           0           0           0
 --- --- --- --- 
         127         128         142         141
           0           0           0           0
 --- --- --- --- 
         128         129         143         142
           0           0           0           0
 --- --- --- --- 
         129         130         144         143
           0           0           0           0
 --- --- --- --- 
         130         131         145         144
           0           0           0           0
 --- --- --- --- 
         133         134         147         146
           0           0           0           0
 --- --- --- --- 
         134         135         148         147
           0           0           0           0
 --- --- --- --- 
         135         136         149         148
           0           0           0           0
 --- --- --- --- 
         136         137         150         149
           0           0           0           0
 --- --- --- --- 
         137         138         151         150
           0           0           0           0
 --- --- --- --- 
         138         139         152         151
           0           0           0           0
 --- --- --- --- 
         139         140         153         152
           0           0           0           0
 --- --- --- --- 
         140         141         154         153
           0           0           0           0
 --- --- --- --- 
         141         142         155         154
           0           0           0           0
 --- --- --- --- 
         142         143         156         155
           0           0           0           0
 --- --- --- --- 
         143         144         157         156
           0           0           0           0
 --- --- --- --- 
         144         145         158         157
           0           0           0           0
 --- --- --- --- 
         147         148         160         159
           0           0           0           0
 --- --- --- --- 
         148         149         161         160
           0           0           0           0
 --- --- --- --- 
         149         150         162         161
           0           0           0           0
 --- --- --- --- 
         150         151         163         162
           0           0           0           0
 --- --- --- --- 
         151         152         164         163
           0           0           0           0
 --- --- --- --- 
         152         153         165         164
           0           0           0           0
 --- --- --- --- 
         153         154         166         165
           0           0           0           0
 --- --- --- --- 
         154         155         167         166
           0           0           0           0
 --- --- --- --- 
         155         156         168         167
           0           0           0           0
 --- --- --- --- 
         156         157         169         168
           0           0           0           0
 --- --- --- --- 
         161         162         171         170
           0           0           0           0
 --- --- --- --- 
         162         163         172         171
           0           0           0           0
 --- --- --- --- 
         163         164         173         172
           0           0           0           0
 --- --- --- --- 
         164         165         174         173
           0           0           0           0
 --- --- --- --- 
         165         166         175         174
           0           0           0           0
 --- --- --- --- 
         166         167         176         175
           0           0           0           0
 --- --- --- --- 
          10         177         178           1
           0           1           0           0
  -2.6293957766107061       -7.1381277795466334        0.0000000000000000     
  -2.5584103860876062       -7.1810440657423769        0.0000000000000000     
  -2.3860801585394777       -7.2802649929670773        0.0000000000000000     
  -2.2124843613857017       -7.3732285788677672        0.0000000000000000     
  -2.1402333512010490       -7.4098882280803480        0.0000000000000000     
 --- OuterCircle --- --- 
           1         178         179           2
           0           1           0           0
  -2.1402333512010490       -7.4098882280803480        0.0000000000000000     
  -2.0448577217096888       -7.4564751474091224        0.0000000000000000     
  -1.8133425373446477       -7.5611254209026590        0.0000000000000000     
  -1.5802445238963483       -7.6546228477612717        0.0000000000000000     
  -1.4832859151661837       -7.6900590333064196        0.0000000000000000     
 --- OuterCircle --- --- 
           2         179         180           3
           0           1           0           0
  -1.4832859151661837       -7.6900590333064196        0.0000000000000000     
  -1.3678047217250122       -7.7296437714624764        0.0000000000000000     
  -1.0879463721002305       -7.8138673730896908        0.0000000000000000     
 -0.80691164900970880       -7.8819462110332532        0.0000000000000000     
 -0.69025378280774441       -7.9053903969114163        0.0000000000000000     
 --- OuterCircle --- --- 
           3         180         181           4
           0           1           0           0
 -0.69025378280774441       -7.9053903969114163        0.0000000000000000     
 -0.56745597803717618       -7.9270303274257881        0.0000000000000000     
 -0.27072231207185188       -7.9664947030285216        0.0000000000000000     
   2.6024266116620974E-002  -7.9878338136361879        0.0000000000000000     
  0.14883534923080852       -7.9913536308673079        0.0000000000000000     
 --- OuterCircle --- --- 
           4         181         182           5
           0           1           0           0
  0.14883534923080852       -7.9913536308673079        0.0000000000000000     
  0.27153665969945490       -7.9917552580734705        0.0000000000000000     
  0.56711226961575323       -7.9798736627625200       -0.0000000000000000     
  0.86139750342106924       -7.9498350935313491       -0.0000000000000000     
  0.98280880390181746       -7.9320848985658809       -0.0000000000000000     
 --- OuterCircle --- --- 
           5         182         183           6
           0           1           0           0
  0.98280880390181746       -7.9320848985658809       -0.0000000000000000     
   1.0979466158749642       -7.9123293464186180       -0.0000000000000000     
   1.3745082747914472       -7.8531069493125809       -0.0000000000000000     
   1.6487691466154257       -7.7776554229151635       -0.0000000000000000     
   1.7616064707888668       -7.7416749528505502       -0.0000000000000000     
 --- OuterCircle --- --- 
           6         183         184           7
           0           1           0           0
   1.7616064707888668       -7.7416749528505502       -0.0000000000000000     
   1.8561939961540053       -7.7092573106879714       -0.0000000000000000     
   2.0830230046057756       -7.6229864394004521       -0.0000000000000000     
   2.3075103932139789       -7.5254674343197037       -0.0000000000000000     
   2.3997564488911003       -7.4818037712151835       -0.0000000000000000     
 --- OuterCircle --- --- 
           7         184         185          16
           0           1           0           0
   2.3997564488911003       -7.4818037712151835       -0.0000000000000000     
   2.4695451591629496       -7.4473525126268658       -0.0000000000000000     
   2.6368993734478683       -7.3596727357809746       -0.0000000000000000     
   2.8025746024400462       -7.2656640865963826       -0.0000000000000000     
   2.8706843774756376       -7.2248846600183478       -0.0000000000000000     
 --- OuterCircle --- --- 
          16         185         186          17
           0           1           0           0
   2.8706843774756376       -7.2248846600183478       -0.0000000000000000     
   2.9581119604232486       -7.1706798990512581       -0.0000000000000000     
   3.1669473473832697       -7.0325271823985265       -0.0000000000000000     
   3.3724538086195737       -6.8841834858216284       -0.0000000000000000     
   3.4565526046395698       -6.8197896979419630       -0.0000000000000000     
 --- OuterCircle --- --- 
          17         186         187          18
           0           1           0           0
   3.4565526046395698       -6.8197896979419630       -0.0000000000000000     
   3.5340050467610644       -6.7585307033491064       -0.0000000000000000     
   3.7187128881906633       -6.6046361995674188       -0.0000000000000000     
   3.9000634232833638       -6.4423696407149569       -0.0000000000000000     
   3.9741586618186817       -6.3727400368653395       -0.0000000000000000     
 --- OuterCircle --- --- 
          18         187         188          30
           0           1           0           0
   3.9741586618186817       -6.3727400368653395       -0.0000000000000000     
   4.0411436907698519       -6.3080691471007162       -0.0000000000000000     
   4.2006961208699112       -6.1472041103576860       -0.0000000000000000     
   4.3570878385175122       -5.9797442790653452       -0.0000000000000000     
   4.4209122258748703       -5.9084795918093684       -0.0000000000000000     
 --- OuterCircle --- --- 
          30         188         189          31
           0           1           0           0
   4.4209122258748703       -5.9084795918093684       -0.0000000000000000     
   4.4841640701279708       -5.8361157698636461       -0.0000000000000000     
   4.6344542735721266       -5.6569445964097929       -0.0000000000000000     
   4.7812318554652444       -5.4715687717491450       -0.0000000000000000     
   4.8409711490260294       -5.3930012956556119       -0.0000000000000000     
 --- OuterCircle --- --- 
          31         189         190          44
           0           1           0           0
   4.8409711490260294       -5.3930012956556119       -0.0000000000000000     
   4.9057981150031607       -5.3056020679883060       -0.0000000000000000     
   5.0590944476845703       -5.0895890140663971       -0.0000000000000000     
   5.2077209249894576       -4.8666590795071718       -0.0000000000000000     
   5.2678781383407918       -4.7723444170165656       -0.0000000000000000     
 --- OuterCircle --- --- 
          44         190         191          57
           0           1           0           0
   5.2678781383407918       -4.7723444170165656       -0.0000000000000000     
   5.3317902674315674       -4.6693979709256128       -0.0000000000000000     
   5.4819753717831654       -4.4155630558616155       -0.0000000000000000     
   5.6261829232763434       -4.1544735932467578       -0.0000000000000000     
   5.6841176383048495       -4.0442745526171828       -0.0000000000000000     
 --- OuterCircle --- --- 
          57         191         192          58
           0           1           0           0
   5.6841176383048495       -4.0442745526171828       -0.0000000000000000     
   5.7282758369512417       -3.9580711665758130       -0.0000000000000000     
   5.8321846879892547       -3.7471290543779019       -0.0000000000000000     
   5.9322028767469757       -3.5323100758336294       -0.0000000000000000     
   5.9724704631695431       -3.4422305277945848       -0.0000000000000000     
 --- OuterCircle --- --- 
          58         192         193          72
           0           1           0           0
   5.9724704631695431       -3.4422305277945848       -0.0000000000000000     
   6.0244118959379387       -3.3227283927780817       -0.0000000000000000     
   6.1447948427706880       -3.0299102482767379       -0.0000000000000000     
   6.2579178914317772       -2.7312966827293756       -0.0000000000000000     
   6.3025995761840585       -2.6060012395181436       -0.0000000000000000     
 --- OuterCircle --- --- 
          72         193         194          84
           0           1           0           0
   6.3025995761840585       -2.6060012395181436       -0.0000000000000000     
   6.3540042269488692       -2.4559592082345403       -0.0000000000000000     
   6.4704156395336341       -2.0887905127229986       -0.0000000000000000     
   6.5756731388825793       -1.7152078152117078       -0.0000000000000000     
   6.6159241757045413       -1.5587559933047748       -0.0000000000000000     
 --- OuterCircle --- --- 
          84         194         195          96
           0           1           0           0
   6.6159241757045413       -1.5587559933047748       -0.0000000000000000     
   6.6561002468772132       -1.3932235194074098       -0.0000000000000000     
   6.7438192057380038      -0.98976123576807362       -0.0000000000000000     
   6.8181032357875058      -0.58160620504097260       -0.0000000000000000     
   6.8448447442715343      -0.41138613579824951       -0.0000000000000000     
 --- OuterCircle --- --- 
          96         195         196         106
           0           1           0           0
   6.8448447442715343      -0.41138613579824951       -0.0000000000000000     
   6.8691856721892481      -0.24058731549330387       -0.0000000000000000     
   6.9178876697949949       0.17372553023501042       -0.0000000000000000     
   6.9520459834790111       0.59002534645234661       -0.0000000000000000     
   6.9618435935980809       0.76280598549759260       -0.0000000000000000     
 --- OuterCircle --- --- 
         106         196         197         118
           0           1           0           0
   6.9618435935980809       0.76280598549759260       -0.0000000000000000     
   6.9687585953119706       0.92718409708148986       -0.0000000000000000     
   6.9756618161243047        1.3239847700643628       -0.0000000000000000     
   6.9684530015099355        1.7199804627653796       -0.0000000000000000     
   6.9612562670901292        1.8835493826904701       -0.0000000000000000     
 --- OuterCircle --- --- 
         118         197         198         132
           0           1           0           0
   6.9612562670901292        1.8835493826904701       -0.0000000000000000     
   6.9532623377387059        2.0209278863402340       -0.0000000000000000     
   6.9265792222094005        2.3512620549686676       -0.0000000000000000     
   6.8892975635755036        2.6792440347345816       -0.0000000000000000     
   6.8707052412750382        2.8142682366705349       -0.0000000000000000     
 --- OuterCircle --- --- 
         132         198         199         131
           0           1           0           0
   6.8707052412750382        2.8142682366705349       -0.0000000000000000     
   6.8553314329129513        2.9165013133191255       -0.0000000000000000     
   6.8137411284115359        3.1618881494388558       -0.0000000000000000     
   6.7657551376621230        3.4050386014230978       -0.0000000000000000     
   6.7439856931084723        3.5050345895879862       -0.0000000000000000     
 --- OuterCircle --- --- 
         131         199         200         145
           0           1           0           0
   6.7439856931084723        3.5050345895879862       -0.0000000000000000     
   6.7142416010690598        3.6334013691460001       -0.0000000000000000     
   6.6346859141121621        3.9399479858452566       -0.0000000000000000     
   6.5440305967593346        4.2412492671139281       -0.0000000000000000     
   6.5031870131202067        4.3643687582281192       -0.0000000000000000     
 --- OuterCircle --- --- 
         145         200         201         158
           0           1           0           0
   6.5031870131202067        4.3643687582281192       -0.0000000000000000     
   6.4635605176744653        4.4776321710281932       -0.0000000000000000     
   6.3609271315769522        4.7471218634082373       -0.0000000000000000     
   6.2483284170093309        5.0106053943188567        0.0000000000000000     
   6.1987366958442047        5.1178611998354917        0.0000000000000000     
 --- OuterCircle --- --- 
         158         201         202         157
           0           1           0           0
   6.1987366958442047        5.1178611998354917        0.0000000000000000     
   6.1520264599185248        5.2145935863358401        0.0000000000000000     
   6.0332446588685800        5.4439873747962197        0.0000000000000000     
   5.9058741671429082        5.6671981896680368        0.0000000000000000     
   5.8505753114000720        5.7577466055228541        0.0000000000000000     
 --- OuterCircle --- --- 
         157         202         203         169
           0           1           0           0
   5.8505753114000720        5.7577466055228541        0.0000000000000000     
   5.7937774287385260        5.8471333632043612        0.0000000000000000     
   5.6504325042529153        6.0579621723814316        0.0000000000000000     
   5.4982037346085875        6.2614190905757416        0.0000000000000000     
   5.4325220776471150        6.3434329602145123        0.0000000000000000     
 --- OuterCircle --- --- 
         169         203         204         168
           0           1           0           0
   5.4325220776471150        6.3434329602145123        0.0000000000000000     
   5.3586626717941410        6.4318539103828920        0.0000000000000000     
   5.1726025296872962        6.6382724050968944        0.0000000000000000     
   4.9754762370522112        6.8342503358165922        0.0000000000000000     
   4.8905507834217143        6.9122292761766468        0.0000000000000000     
 --- OuterCircle --- --- 
         168         204         205         167
           0           1           0           0
   4.8905507834217143        6.9122292761766468        0.0000000000000000     
   4.7968311678319715        6.9941265361737557        0.0000000000000000     
   4.5612480585341979        7.1822441371453731        0.0000000000000000     
   4.3123439387255926        7.3561681023234726        0.0000000000000000     
   4.2053034514212859        7.4238697735131804        0.0000000000000000     
 --- OuterCircle --- --- 
         167         205         206         176
           0           1           0           0
   4.2053034514212859        7.4238697735131804        0.0000000000000000     
   4.1207539516126932        7.4745328733083998        0.0000000000000000     
   3.9108431926137519        7.5901906958957550        0.0000000000000000     
   3.6926818374902042        7.6961400615331144        0.0000000000000000     
   3.5998817916134151        7.7370940000304138        0.0000000000000000     
 --- OuterCircle --- --- 
         176         206         207         175
           0           1           0           0
   3.5998817916134151        7.7370940000304138        0.0000000000000000     
   3.4755662396811071        7.7883094819643501        0.0000000000000000     
   3.1651295935473374        7.8990406208270736        0.0000000000000000     
   2.8399694923185090        7.9908033338884614        0.0000000000000000     
   2.7009306354466913        8.0230482771697762        0.0000000000000000     
 --- OuterCircle --- --- 
         175         207         208         174
           0           1           0           0
   2.7009306354466913        8.0230482771697762        0.0000000000000000     
   2.5323855022635566        8.0568451026057275        0.0000000000000000     
   2.1104155133505156        8.1175923593466628        0.0000000000000000     
   1.6669084524050455        8.1476246395637766        0.0000000000000000     
   1.4768265464826582        8.1507022770965634        0.0000000000000000     
 --- OuterCircle --- --- 
         174         208         209         173
           0           1           0           0
   1.4768265464826582        8.1507022770965634        0.0000000000000000     
   1.2728603321986345        8.1478430552107621        0.0000000000000000     
  0.76314228405082318        8.1143967097823140        0.0000000000000000     
  0.22869504203219304        8.0419073689910672        0.0000000000000000     
   0.0000000000000000        8.0000000000000000        0.0000000000000000     
 --- OuterCircle --- --- 
         173         209         210         172
           0           1           0           0
   0.0000000000000000        8.0000000000000000        0.0000000000000000     
   4.0260802157212083        2.0838100681846750        0.0000000000000000     
   3.2856189183125522        2.6335360919706661        0.0000000000000000     
   2.5664843390160725        3.1187932989764056        0.0000000000000000     
   2.2749549419170831        3.3015487439099265        0.0000000000000000     
 --- OuterCircle --- --- 
         172         210         211         171
           0           1           0           0
   2.2749549419170831        3.3015487439099265        0.0000000000000000     
   2.0012363990266300        3.4656683991047341        0.0000000000000000     
   1.3545735251462128        3.8240863324066550        0.0000000000000000     
  0.72817987871480350        4.1308537863980375        0.0000000000000000     
  0.47472705404431514        4.2433170324639624        0.0000000000000000     
 --- OuterCircle --- --- 
         171         211         212         170
           0           1           0           0
  0.47472705404431514        4.2433170324639624        0.0000000000000000     
  0.26416866883967971        4.3315093140867535        0.0000000000000000     
 -0.23373269344949299        4.5206813148267564        0.0000000000000000     
 -0.71675636160237111        4.6773089214696437        0.0000000000000000     
 -0.91243881651610437        4.7329537994462658        0.0000000000000000     
 --- OuterCircle --- --- 
         170         212         213         161
           0           1           0           0
 -0.91243881651610437        4.7329537994462658        0.0000000000000000     
  -1.0593986432979119        4.7717028364031515        0.0000000000000000     
  -1.4080079386649622        4.8529313211822078        0.0000000000000000     
  -1.7478276352176427        4.9171737112494416        0.0000000000000000     
  -1.8859984529350633        4.9389356788837278        0.0000000000000000     
 --- OuterCircle --- --- 
         161         213         214         160
           0           1           0           0
  -1.8859984529350633        4.9389356788837278        0.0000000000000000     
  -2.0620489412382073        4.9629088849403402        0.0000000000000000     
  -2.4765901354377275        5.0021696010183208        0.0000000000000000     
  -2.8762287609214852        5.0160103391592976        0.0000000000000000     
  -3.0373783012101474        5.0145608248502151        0.0000000000000000     
 --- OuterCircle --- --- 
         160         214         215         159
           0           1           0           0
  -3.0373783012101474        5.0145608248502151        0.0000000000000000     
  -3.1845525439209581        5.0095563500969584        0.0000000000000000     
  -3.5306941052998497        4.9833396578812366        0.0000000000000000     
  -3.8638241261816346        4.9378277027379278        0.0000000000000000     
  -3.9979880299896520        4.9135259122090194        0.0000000000000000     
 --- OuterCircle --- --- 
         159         215         216         147
           0           1           0           0
  -3.9979880299896520        4.9135259122090194        0.0000000000000000     
  -4.1182942434551242        4.8886753989824028        0.0000000000000000     
  -4.4010445631670247        4.8183300706814425        0.0000000000000000     
  -4.6728908247071779        4.7338514457883205        0.0000000000000000     
  -4.7822938147078196        4.6948662246655637        0.0000000000000000     
 --- OuterCircle --- --- 
         147         216         217         146
           0           1           0           0
  -4.7822938147078196        4.6948662246655637        0.0000000000000000     
  -4.8898210454488860        4.6536061055535205        0.0000000000000000     
  -5.1416742804950850        4.5448833254593968        0.0000000000000000     
  -5.3825698878482768        4.4237600339260927        0.0000000000000000     
  -5.4791403200148512        4.3700979903357791        0.0000000000000000     
 --- OuterCircle --- --- 
         146         217         218         133
           0           1           0           0
  -5.4791403200148512        4.3700979903357791        0.0000000000000000     
  -5.5829463804003536        4.3089311126688958        0.0000000000000000     
  -5.8242141222497352        4.1517524442152451        0.0000000000000000     
  -6.0522709423459515        3.9817420161209562        0.0000000000000000     
  -6.1428672888370075        3.9077413379741097        0.0000000000000000     
 --- OuterCircle --- --- 
         133         218         219         120
           0           1           0           0
  -6.1428672888370075        3.9077413379741097        0.0000000000000000     
  -6.2380003334136855        3.8257030082544219        0.0000000000000000     
  -6.4568337240866551        3.6183730575729358        0.0000000000000000     
  -6.6603622091437931        3.3986660803873776        0.0000000000000000     
  -6.7401919740184004        3.3042479722345357        0.0000000000000000     
 --- OuterCircle --- --- 
         120         219         220         119
           0           1           0           0
  -6.7401919740184004        3.3042479722345357        0.0000000000000000     
  -7.0273476983489651        3.5402119510809378        0.0000000000000000     
  -7.0729952886344805        3.3023298888111210        0.0000000000000000     
  -7.1114248020747937        3.0618809084433085        0.0000000000000000     
  -7.1252577471574341        2.9615975327648281        0.0000000000000000     
 --- OuterCircle --- --- 
         119         220         221         107
           0           1           0           0
  -7.1252577471574341        2.9615975327648281        0.0000000000000000     
  -7.1416221154257542        2.8290543648173876        0.0000000000000000     
  -7.1726231176849220        2.5066709676347556        0.0000000000000000     
  -7.1918193932743959        2.1813914214174894        0.0000000000000000     
  -7.1963788847174728        2.0459499915841222        0.0000000000000000     
 --- OuterCircle --- --- 
         107         221         222          97
           0           1           0           0
  -7.1963788847174728        2.0459499915841222        0.0000000000000000     
  -7.1992528613667472        1.8845647780841426        0.0000000000000000     
  -7.1949998275461295        1.4933224571867458        0.0000000000000000     
  -7.1752929547355588        1.1005572833312025        0.0000000000000000     
  -7.1627127930998267       0.93764500546731744        0.0000000000000000     
 --- OuterCircle --- --- 
          97         222         223          85
           0           1           0           0
  -7.1627127930998267       0.93764500546731744        0.0000000000000000     
  -7.1467436191117617       0.76627904435920335        0.0000000000000000     
  -7.0968461475532436       0.35286405169550361        0.0000000000000000     
  -7.0313344457040889       -5.9296228715598864E-002   0.0000000000000000     
  -6.9997506753075651      -0.22941262924558520        0.0000000000000000     
 --- OuterCircle --- --- 
          85         223         224          73
           0           1           0           0
  -6.9997506753075651      -0.22941262924558520        0.0000000000000000     
  -6.9656166936618789      -0.39907115268512783        0.0000000000000000     
  -6.8729280748797486      -0.80635625263181598        0.0000000000000000     
  -6.7661229422974012       -1.2096175672519449        0.0000000000000000     
  -6.7178720807283785       -1.3752574571139551        0.0000000000000000     
 --- OuterCircle --- --- 
          73         224         225          59
           0           1           0           0
  -6.7178720807283785       -1.3752574571139551        0.0000000000000000     
  -6.6698632744392761       -1.5319130813359882        0.0000000000000000     
  -6.5456030500619580       -1.9063869497604762        0.0000000000000000     
  -6.4098851931126593       -2.2749958137655790        0.0000000000000000     
  -6.3504184549565244       -2.4257906449739850        0.0000000000000000     
 --- OuterCircle --- --- 
          59         225         226          45
           0           1           0           0
  -6.3504184549565244       -2.4257906449739850        0.0000000000000000     
  -6.2989298868271630       -2.5517888677849347        0.0000000000000000     
  -6.1693171600079157       -2.8523555003021870        0.0000000000000000     
  -6.0324099594396907       -3.1474800976289088        0.0000000000000000     
  -5.9736267674058006       -3.2680383981006216        0.0000000000000000     
 --- OuterCircle --- --- 
          45         226         227          46
           0           1           0           0
  -5.9736267674058006       -3.2680383981006216        0.0000000000000000     
  -5.9281652242647302       -3.3589589471270327        0.0000000000000000     
  -5.8156349189620693       -3.5759437824344373        0.0000000000000000     
  -5.6992706149400041       -3.7892393308461774        0.0000000000000000     
  -5.6499750230236234       -3.8764712973177686        0.0000000000000000     
 --- OuterCircle --- --- 
          46         227         228          32
           0           1           0           0
  -5.6499750230236234       -3.8764712973177686        0.0000000000000000     
  -5.5854330916166477       -3.9880438871547077        0.0000000000000000     
  -5.4253973043870323       -4.2526571762099250        0.0000000000000000     
  -5.2595937396625922       -4.5103010692417564        0.0000000000000000     
  -5.1892838919634459       -4.6149062160843828        0.0000000000000000     
 --- OuterCircle --- --- 
          32         228         229          19
           0           1           0           0
  -5.1892838919634459       -4.6149062160843828        0.0000000000000000     
  -5.1232338255369685       -4.7108006616310032        0.0000000000000000     
  -4.9605593621630479       -4.9377050138926366        0.0000000000000000     
  -4.7934933038103349       -5.1579125010836346        0.0000000000000000     
  -4.7230515396543424       -5.2471115273736357        0.0000000000000000     
 --- OuterCircle --- --- 
          19         229         230          20
           0           1           0           0
  -4.7230515396543424       -5.2471115273736357        0.0000000000000000     
  -4.6582434152394505       -5.3273503985380772        0.0000000000000000     
  -4.4994269718119995       -5.5168805213825847        0.0000000000000000     
  -4.3373958181386385       -5.7003693029261617        0.0000000000000000     
  -4.2693729126183779       -5.7745678298590182        0.0000000000000000     
 --- OuterCircle --- --- 
          20         230         231           8
           0           1           0           0
  -4.2693729126183779       -5.7745678298590182        0.0000000000000000     
  -4.2008339622057056       -5.8476932794473697        0.0000000000000000     
  -4.0333001926787118       -6.0197515682268188        0.0000000000000000     
  -3.8629604192164386       -6.1853599700528958        0.0000000000000000     
  -3.7916153940105786       -6.2520365297354639        0.0000000000000000     
 --- OuterCircle --- --- 
           8         231         232           9
           0           1           0           0
  -3.7916153940105786       -6.2520365297354639        0.0000000000000000     
  -3.7128106693772840       -6.3238940254572578        0.0000000000000000     
  -3.5204243637704615       -6.4916509701392613        0.0000000000000000     
  -3.3251707392059533       -6.6511869960926671        0.0000000000000000     
  -3.2434985928642535       -6.7148250188998793        0.0000000000000000     
 --- OuterCircle --- --- 
           9         232         177          10
           0           1           0           0
  -3.2434985928642535       -6.7148250188998793        0.0000000000000000     
  -3.1549503104292174       -6.7818104042425817        0.0000000000000000     
  -2.9391391409614793       -6.9365202606871144        0.0000000000000000     
  -2.7206360846684134       -7.0811852791532504        0.0000000000000000     
  -2.6293957766107061       -7.1381277795466334        0.0000000000000000     
 --- OuterCircle --- --- 
          51          37          38         233
           0           0           0           0
 --- --- --- --- 
         233          38          39          52
           0           0           0           0
 --- --- --- --- 
          52          66         234         233
           0           0           1           0
   0.0000000000000000       -3.0000000000000000        0.0000000000000000     
   8.1918573019674312E-002  -2.8361628539606514        0.0000000000000000     
  0.27968750301402334       -2.4406249939719533        0.0000000000000000     
  0.47745643300837237       -2.0450871339832553        0.0000000000000000     
  0.55937500602804668       -1.8812499879439066        0.0000000000000000     
 --- --- RightSlant --- 
          66          67         235         234
           0           0           1           0
  0.55937500602804668       -1.8812499879439066        0.0000000000000000     
  0.60056311315811417       -1.7988737736837717        0.0000000000000000     
  0.69999999999999973       -1.6000000000000005        0.0000000000000000     
  0.79943688684188530       -1.4011262263162294        0.0000000000000000     
  0.84062499397195278       -1.3187500120560944        0.0000000000000000     
 --- --- RightSlant --- 
          67          79         236         235
           0           0           1           0
  0.84062499397195278       -1.3187500120560944        0.0000000000000000     
  0.89325425707682937       -1.2134914858463413        0.0000000000000000     
   1.0203125378423255      -0.95937492431534910        0.0000000000000000     
   1.1473708186078211      -0.70525836278435783        0.0000000000000000     
   1.2000000817126981      -0.59999983657460376        0.0000000000000000     
 --- --- RightSlant --- 
          79          91         237         236
           0           0           1           0
   1.2000000817126981      -0.59999983657460376        0.0000000000000000     
   1.2526293208844796      -0.49474135823104071        0.0000000000000000     
   1.3796875438703724      -0.24062491225925520        0.0000000000000000     
   1.5067457668562652        1.3491533712530313E-002   0.0000000000000000     
   1.5593750060280467       0.11875001205609337        0.0000000000000000     
 --- --- RightSlant --- 
          91          92         238         237
           0           0           1           0
   1.5593750060280467       0.11875001205609337        0.0000000000000000     
   1.6005631131581151       0.20112622631623012        0.0000000000000000     
   1.6999999999999993       0.39999999999999858        0.0000000000000000     
   1.7994368868418849       0.59887377368376971        0.0000000000000000     
   1.8406249939719528       0.68124998794390557        0.0000000000000000     
 --- --- RightSlant --- 
          92         102         239         238
           0           0           1           0
   1.8406249939719528       0.68124998794390557        0.0000000000000000     
   1.8639649232289370       0.72792984645787406        0.0000000000000000     
   1.9203124969859759       0.84062499397195189        0.0000000000000000     
   1.9766600707430158       0.95332014148603150        0.0000000000000000     
   2.0000000000000000        1.0000000000000000        0.0000000000000000     
 --- --- RightSlant --- 
         102         114         240         239
           0           0           1           0
   2.0000000000000000        1.0000000000000000        0.0000000000000000     
   1.9983479703871072        1.0812735458173770        0.0000000000000000     
   1.9807707726899886        1.2766715490561058        0.0000000000000000     
   1.9441339362737691        1.4694073261344140        0.0000000000000000     
   1.9234528539428932        1.5480229180052043        0.0000000000000000     
 --- --- IceCream --- 
         114         113         241         240
           0           0           1           0
   1.9234528539428932        1.5480229180052043        0.0000000000000000     
   1.9048209196670516        1.6096369936271651        0.0000000000000000     
   1.8517494276368289        1.7556613376683212        0.0000000000000000     
   1.7875027702478623        1.8971253236623173        0.0000000000000000     
   1.7577069153495042        1.9541836299856179        0.0000000000000000     
 --- --- IceCream --- 
         113         127         242         241
           0           0           1           0
   1.7577069153495042        1.9541836299856179        0.0000000000000000     
   1.7159031169606289        2.0274611881744238        0.0000000000000000     
   1.6025531944504807        2.1965881743342441        0.0000000000000000     
   1.4725959561431350        2.3533148746507173        0.0000000000000000     
   1.4142135455002482        2.4142135792459416        0.0000000000000000     
 --- --- IceCream --- 
         127         126         243         242
           0           0           1           0
   1.4142135455002482        2.4142135792459416        0.0000000000000000     
   1.3533148446578711        2.4725959837065434        0.0000000000000000     
   1.1965881552143354        2.6025532087268597        0.0000000000000000     
   1.0274611821782322        2.7159031205510731        0.0000000000000000     
  0.95418362998561790        2.7577069153495044        0.0000000000000000     
 --- --- IceCream --- 
         126         140         244         243
           0           0           1           0
  0.95418362998561790        2.7577069153495044        0.0000000000000000     
  0.89712532762418773        2.7875027682594489        0.0000000000000000     
  0.75566135168116888        2.8517494219184703        0.0000000000000000     
  0.60963701823418193        2.9048209117915880        0.0000000000000000     
  0.54802294711610733        2.9234528456487245        0.0000000000000000     
 --- --- IceCream --- 
         140         139         245         244
           0           0           1           0
  0.54802294711610733        2.9234528456487245        0.0000000000000000     
  0.46940735118449745        2.9441339302254752        0.0000000000000000     
  0.27667156381993480        2.9807707706277959        0.0000000000000000     
   8.1273549858423472E-002   2.9983479702227562        0.0000000000000000     
  -4.5511671064437944E-010   3.0000000000000000        0.0000000000000000     
 --- --- IceCream --- 
         139         138         246         245
           0           0           1           0
  -4.5511671064437944E-010   3.0000000000000000        0.0000000000000000     
  -8.1273514348751255E-002   2.9983479716669477        0.0000000000000000     
 -0.27667144147234074        2.9807707877171499        0.0000000000000000     
 -0.46940714556157248        2.9441339798727189        0.0000000000000000     
 -0.54802270862630975        2.9234529135983243        0.0000000000000000     
 --- --- IceCream --- 
         138         125         247         246
           0           0           1           0
 -0.54802270862630975        2.9234529135983243        0.0000000000000000     
 -0.60963681664226710        2.9048209763109716        0.0000000000000000     
 -0.75566123688154063        2.8517494687658642        0.0000000000000000     
 -0.89712529516674266        2.7875027845494351        0.0000000000000000     
 -0.95418362998561812        2.7577069153495044        0.0000000000000000     
 --- --- IceCream --- 
         125         124         248         247
           0           0           1           0
 -0.95418362998561812        2.7577069153495044        0.0000000000000000     
  -1.0274611529224809        2.7159031380690477        0.0000000000000000     
  -1.1965880619272244        2.6025532783821101        0.0000000000000000     
  -1.3533146983210931        2.4725961181899434        0.0000000000000000     
  -1.4142133808531077        2.4142137438930593        0.0000000000000000     
 --- --- IceCream --- 
         124         112         249         248
           0           0           1           0
  -1.4142133808531077        2.4142137438930593        0.0000000000000000     
  -1.4725958216597181        2.3533150209874787        0.0000000000000000     
  -1.6025531247952236        2.1965882676213502        0.0000000000000000     
  -1.7159030994426530        2.0274612174301749        0.0000000000000000     
  -1.7577069153495026        1.9541836299856208        0.0000000000000000     
 --- --- IceCream --- 
         112         111         250         249
           0           0           1           0
  -1.7577069153495026        1.9541836299856208        0.0000000000000000     
  -1.7875027845494327        1.8971252951667479        0.0000000000000000     
  -1.8517494687658640        1.7556612368815410        0.0000000000000000     
  -1.9048209763109714        1.6096368166422679        0.0000000000000000     
  -1.9234529135983243        1.5480227086263101        0.0000000000000000     
 --- --- IceCream --- 
         111         101         251         250
           0           0           1           0
  -1.9234529135983243        1.5480227086263101        0.0000000000000000     
  -1.9441339798883621        1.4694071454967825        0.0000000000000000     
  -1.9807707877486287        1.2766714412469717        0.0000000000000000     
  -1.9983479716827337        1.0812735139606025        0.0000000000000000     
  -2.0000000000000000        1.0000000000000002        0.0000000000000000     
 --- --- IceCream --- 
         101          89         252         251
           0           0           1           0
  -2.0000000000000000        1.0000000000000000        0.0000000000000000     
  -1.9766600707430160       0.95332014148603195        0.0000000000000000     
  -1.9203124969859764       0.84062499397195278        0.0000000000000000     
  -1.8639649232289368       0.72792984645787362        0.0000000000000000     
  -1.8406249939719528       0.68124998794390557        0.0000000000000000     
 --- --- LeftSlant --- 
          89          90         253         252
           0           0           1           0
  -1.8406249939719528       0.68124998794390557        0.0000000000000000     
  -1.7994368868418851       0.59887377368377015        0.0000000000000000     
  -1.7000000000000000       0.39999999999999991        0.0000000000000000     
  -1.6005631131581148       0.20112622631622967        0.0000000000000000     
  -1.5593750060280471       0.11875001205609426        0.0000000000000000     
 --- --- LeftSlant --- 
          90          78         254         253
           0           0           1           0
  -1.5593750060280471       0.11875001205609426        0.0000000000000000     
  -1.5067457553473789        1.3491510694757736E-002   0.0000000000000000     
  -1.3796875045765755      -0.24062499084684896        0.0000000000000000     
  -1.2526292538057724      -0.49474149238845522        0.0000000000000000     
  -1.2000000031251039      -0.59999999374979218        0.0000000000000000     
 --- --- LeftSlant --- 
          78          64         255         254
           0           0           1           0
  -1.2000000031251039      -0.59999999374979218        0.0000000000000000     
  -1.1473707515291136      -0.70525849694177278        0.0000000000000000     
  -1.0203124985485283      -0.95937500290294331        0.0000000000000000     
 -0.89325424556794286       -1.2134915088641143        0.0000000000000000     
 -0.84062499397195278       -1.3187500120560944        0.0000000000000000     
 --- --- LeftSlant --- 
          64          65         256         255
           0           0           1           0
 -0.84062499397195278       -1.3187500120560944        0.0000000000000000     
 -0.79943688684188507       -1.4011262263162299        0.0000000000000000     
 -0.69999999999999996       -1.6000000000000001        0.0000000000000000     
 -0.60056311315811484       -1.7988737736837703        0.0000000000000000     
 -0.55937500602804713       -1.8812499879439057        0.0000000000000000     
 --- --- LeftSlant --- 
          65          51         233         256
           0           0           1           0
 -0.55937500602804713       -1.8812499879439057        0.0000000000000000     
 -0.47745643300837282       -2.0450871339832544        0.0000000000000000     
 -0.27968750301402356       -2.4406249939719529        0.0000000000000000     
  -8.1918573019674756E-002  -2.8361628539606505        0.0000000000000000     
   0.0000000000000000       -3.0000000000000000        0.0000000000000000     
 --- --- LeftSlant --- 
